<svg xmlns="http://www.w3.org/2000/svg" viewBox="0 0 45 46.9"><defs><style>.cls-1{fill:#fff;}</style></defs><title>CloudSnowMoon</title><g id="Layer_2" data-name="Layer 2"><g id="Layer_1-2" data-name="Layer 1"><path class="cls-1" d="M41.8,20.1h0A11.59,11.59,0,0,1,44,27a11.91,11.91,0,0,1-8,11.3V33.9A8,8,0,0,0,32,19a7.79,7.79,0,0,0-4.3,1.3A12,12,0,0,0,4,23a11.81,11.81,0,0,0,4,8.9v4.9A16,16,0,0,1,16,7a18,18,0,0,1,5.7,1h0A11.91,11.91,0,0,1,33,0a15,15,0,0,1,2.2.2A8.81,8.81,0,0,0,35,1.9a8,8,0,0,0,8,8,11,11,0,0,0,1.8-.2,16.35,16.35,0,0,1,.2,2.2A12,12,0,0,1,41.8,20.1ZM31.2,4.2A7.92,7.92,0,0,0,25.3,10,17.94,17.94,0,0,1,30,15.2a13.55,13.55,0,0,1,2-.2,11.53,11.53,0,0,1,7,2.3h0a7.82,7.82,0,0,0,1.8-3.5A12.17,12.17,0,0,1,31.2,4.2ZM14,30.9a2,2,0,1,1-2,2A2,2,0,0,1,14,30.9Zm0,8a2,2,0,1,1-2,2A2,2,0,0,1,14,38.9Zm8-4a2,2,0,1,1-2,2A2,2,0,0,1,22,34.9Zm0,8a2,2,0,1,1-2,2A2,2,0,0,1,22,42.9Zm8-12a2,2,0,1,1-2,2A2,2,0,0,1,30,30.9Zm0,8a2,2,0,1,1-2,2A2,2,0,0,1,30,38.9Z"/></g></g></svg>